<?xml version="1.0" encoding="utf-8"?>
<!-- Generator: Adobe Illustrator 17.0.0, SVG Export Plug-In . SVG Version: 6.00 Build 0)  -->
<!DOCTYPE svg PUBLIC "-//W3C//DTD SVG 1.1//EN" "http://www.w3.org/Graphics/SVG/1.1/DTD/svg11.dtd">
<svg version="1.1" id="图层_1" xmlns="http://www.w3.org/2000/svg" xmlns:xlink="http://www.w3.org/1999/xlink" x="0px" y="0px"
	 width="1447.667px" height="1074px" viewBox="0 0 1447.667 1074" enable-background="new 0 0 1447.667 1074" xml:space="preserve">
<line fill="none" stroke="#000000" stroke-miterlimit="10" x1="339.634" y1="20.48" x2="492.48" y2="20.48"/>
<line fill="none" stroke="#000000" stroke-miterlimit="10" x1="231.504" y1="92.024" x2="384.35" y2="92.024"/>
<line fill="none" stroke="#000000" stroke-miterlimit="10" x1="232.317" y1="110.724" x2="385.163" y2="110.724"/>
<line fill="none" stroke="#000000" stroke-miterlimit="10" x1="339.634" y1="20.48" x2="234.756" y2="91.211"/>
<line fill="none" stroke="#000000" stroke-miterlimit="10" x1="490.041" y1="21.919" x2="385.163" y2="92.65"/>
<line fill="none" stroke="#000000" stroke-miterlimit="10" x1="490.919" y1="38.74" x2="386.041" y2="109.472"/>
<line fill="none" stroke="#000000" stroke-miterlimit="10" x1="234.504" y1="92.024" x2="234.504" y2="110.724"/>
<line fill="none" stroke="#000000" stroke-miterlimit="10" x1="384.911" y1="91.211" x2="384.911" y2="109.911"/>
<line fill="none" stroke="#000000" stroke-miterlimit="10" x1="491.415" y1="22.106" x2="491.415" y2="40.805"/>
<line fill="none" stroke="#000000" stroke-miterlimit="10" x1="321.951" y1="168.073" x2="443.699" y2="168.073"/>
<line fill="none" stroke="#000000" stroke-miterlimit="10" x1="235.821" y1="219.637" x2="357.569" y2="219.637"/>
<line fill="none" stroke="#000000" stroke-miterlimit="10" x1="236.469" y1="233.114" x2="358.217" y2="233.114"/>
<line fill="none" stroke="#000000" stroke-miterlimit="10" x1="321.951" y1="168.073" x2="238.412" y2="219.051"/>
<line fill="none" stroke="#000000" stroke-miterlimit="10" x1="441.756" y1="169.11" x2="358.217" y2="220.088"/>
<line fill="none" stroke="#000000" stroke-miterlimit="10" x1="442.456" y1="181.234" x2="358.916" y2="232.211"/>
<line fill="none" stroke="#000000" stroke-miterlimit="10" x1="238.211" y1="219.637" x2="238.211" y2="233.114"/>
<line fill="none" stroke="#000000" stroke-miterlimit="10" x1="358.016" y1="219.051" x2="358.016" y2="232.528"/>
<line fill="none" stroke="#000000" stroke-miterlimit="10" x1="442.851" y1="169.245" x2="442.851" y2="182.722"/>
<line fill="none" stroke="#000000" stroke-miterlimit="10" x1="560.198" y1="165.619" x2="681.946" y2="165.619"/>
<line fill="none" stroke="#000000" stroke-miterlimit="10" x1="474.068" y1="217.183" x2="595.816" y2="217.183"/>
<line fill="none" stroke="#000000" stroke-miterlimit="10" x1="474.715" y1="230.66" x2="596.463" y2="230.66"/>
<line fill="none" stroke="#000000" stroke-miterlimit="10" x1="560.198" y1="165.619" x2="476.658" y2="216.597"/>
<line fill="none" stroke="#000000" stroke-miterlimit="10" x1="680.003" y1="166.657" x2="596.463" y2="217.634"/>
<line fill="none" stroke="#000000" stroke-miterlimit="10" x1="680.703" y1="178.78" x2="597.163" y2="229.758"/>
<line fill="none" stroke="#000000" stroke-miterlimit="10" x1="476.457" y1="217.183" x2="476.457" y2="230.66"/>
<line fill="none" stroke="#000000" stroke-miterlimit="10" x1="596.263" y1="216.597" x2="596.263" y2="230.074"/>
<line fill="none" stroke="#000000" stroke-miterlimit="10" x1="681.098" y1="166.791" x2="681.098" y2="180.268"/>
<line fill="none" stroke="#E60012" stroke-miterlimit="10" x1="553.694" y1="408.709" x2="675.442" y2="408.709"/>
<line fill="none" stroke="#E60012" stroke-miterlimit="10" x1="467.564" y1="476.386" x2="589.312" y2="476.386"/>
<line fill="none" stroke="#E60012" stroke-miterlimit="10" x1="468.211" y1="494.075" x2="589.959" y2="494.075"/>
<line fill="none" stroke="#E60012" stroke-miterlimit="10" x1="553.694" y1="408.709" x2="470.154" y2="475.617"/>
<line fill="none" stroke="#E60012" stroke-miterlimit="10" x1="673.499" y1="410.07" x2="589.959" y2="476.979"/>
<line fill="none" stroke="#E60012" stroke-miterlimit="10" x1="674.198" y1="425.982" x2="590.659" y2="492.89"/>
<line fill="none" stroke="#E60012" stroke-miterlimit="10" x1="469.953" y1="476.386" x2="469.953" y2="494.075"/>
<line fill="none" stroke="#E60012" stroke-miterlimit="10" x1="589.759" y1="475.617" x2="589.759" y2="493.306"/>
<line fill="none" stroke="#E60012" stroke-miterlimit="10" x1="674.594" y1="410.247" x2="674.594" y2="427.935"/>
<line fill="none" stroke="#000000" stroke-miterlimit="10" x1="555.22" y1="320.919" x2="676.967" y2="320.919"/>
<line fill="none" stroke="#000000" stroke-miterlimit="10" x1="469.089" y1="360.236" x2="590.837" y2="360.236"/>
<line fill="none" stroke="#000000" stroke-miterlimit="10" x1="469.737" y1="370.512" x2="591.485" y2="370.512"/>
<line fill="none" stroke="#000000" stroke-miterlimit="10" x1="555.22" y1="320.919" x2="471.68" y2="359.789"/>
<line fill="none" stroke="#000000" stroke-miterlimit="10" x1="675.025" y1="321.71" x2="591.485" y2="360.58"/>
<line fill="none" stroke="#000000" stroke-miterlimit="10" x1="675.724" y1="330.954" x2="592.184" y2="369.824"/>
<line fill="none" stroke="#000000" stroke-miterlimit="10" x1="470.479" y1="358.352" x2="470.479" y2="371.829"/>
<line fill="none" stroke="#000000" stroke-miterlimit="10" x1="591.284" y1="359.789" x2="591.284" y2="370.065"/>
<line fill="none" stroke="#000000" stroke-miterlimit="10" x1="676.119" y1="321.812" x2="676.119" y2="332.088"/>
<line fill="none" stroke="#000000" stroke-miterlimit="10" x1="280.366" y1="341.244" x2="329.065" y2="341.244"/>
<line fill="none" stroke="#000000" stroke-miterlimit="10" x1="245.914" y1="361.869" x2="294.613" y2="361.869"/>
<line fill="none" stroke="#000000" stroke-miterlimit="10" x1="246.173" y1="367.26" x2="294.872" y2="367.26"/>
<line fill="none" stroke="#000000" stroke-miterlimit="10" x1="280.366" y1="341.244" x2="246.95" y2="361.635"/>
<line fill="none" stroke="#000000" stroke-miterlimit="10" x1="328.288" y1="341.659" x2="294.872" y2="362.05"/>
<line fill="none" stroke="#000000" stroke-miterlimit="10" x1="328.568" y1="346.508" x2="295.152" y2="366.899"/>
<line fill="none" stroke="#000000" stroke-miterlimit="10" x1="246.87" y1="361.869" x2="246.87" y2="367.26"/>
<line fill="none" stroke="#000000" stroke-miterlimit="10" x1="294.792" y1="361.635" x2="294.792" y2="367.026"/>
<line fill="none" stroke="#000000" stroke-miterlimit="10" x1="328.726" y1="341.713" x2="328.726" y2="347.103"/>
<g>
	<g>
		<line fill="none" stroke="#000000" stroke-miterlimit="10" x1="335.569" y1="354.252" x2="425.534" y2="354.252"/>
		<g>
			<polygon points="422.726,357.955 424.299,354.252 422.726,350.549 431.504,354.252 			"/>
		</g>
	</g>
</g>
<g>
	<g>
		<line fill="none" stroke="#000000" stroke-miterlimit="10" x1="454.902" y1="704.919" x2="909.03" y2="704.919"/>
		<g>
			<polygon points="906.222,708.622 907.795,704.919 906.222,701.216 915,704.919 			"/>
		</g>
	</g>
</g>
<text transform="matrix(1 0 0 1 303.0489 375.3898)" fill="#E60012" font-family="'AdobeSongStd-Light-GBpc-EUC-H'" font-size="12">torch上下采样函数，size变一样</text>
<text transform="matrix(1 0 0 1 550.3822 724.0565)" fill="#E60012" font-family="'AdobeSongStd-Light-GBpc-EUC-H'" font-size="12">torch上下采样函数，size变一样</text>
<g>
	<g>
		<path d="M564.837,243.744c3.224,0,3.224-5,0-5C561.613,238.744,561.613,243.744,564.837,243.744L564.837,243.744z"/>
	</g>
</g>
<g>
	<g>
		<path d="M564.65,266.508c3.224,0,3.224-5,0-5C561.426,261.508,561.426,266.508,564.65,266.508L564.65,266.508z"/>
	</g>
</g>
<g>
	<g>
		<path d="M564.837,294.15c3.224,0,3.224-5,0-5C561.613,289.15,561.613,294.15,564.837,294.15L564.837,294.15z"/>
	</g>
</g>
<g>
	<g>
		<path d="M564.65,316.915c3.224,0,3.224-5,0-5C561.426,311.915,561.426,316.915,564.65,316.915L564.65,316.915z"/>
	</g>
</g>
<text transform="matrix(1 0 0 1 561.325 282.2684)" font-family="'AdobeSongStd-Light-GBpc-EUC-H'" font-size="12">+</text>
<g>
	<g>
		<path d="M1067.68,249.224c3.224,0,3.224-5,0-5S1064.455,249.224,1067.68,249.224L1067.68,249.224z"/>
	</g>
</g>
<g>
	<g>
		<path d="M1066.617,307.778c3.224,0,3.224-5,0-5C1063.393,302.778,1063.393,307.778,1066.617,307.778L1066.617,307.778z"/>
	</g>
</g>
<g>
	<g>
		<path d="M1067.68,378.879c3.224,0,3.224-5,0-5S1064.455,378.879,1067.68,378.879L1067.68,378.879z"/>
	</g>
</g>
<g>
	<g>
		<path d="M1066.617,437.434c3.224,0,3.224-5,0-5C1063.393,432.434,1063.393,437.434,1066.617,437.434L1066.617,437.434z"/>
	</g>
</g>
<text transform="matrix(2.2096 0 0 1 1047.7153 352.2468)" font-family="'AdobeSongStd-Light-GBpc-EUC-H'" font-size="30.8664">+</text>
<g>
	<g>
		<path d="M1069.667,129.167c3.224,0,3.224-5,0-5C1066.442,124.167,1066.442,129.167,1069.667,129.167L1069.667,129.167z"/>
	</g>
</g>
<g>
	<g>
		<path d="M1068.604,187.721c3.224,0,3.224-5,0-5S1065.38,187.721,1068.604,187.721L1068.604,187.721z"/>
	</g>
</g>
<g>
	<g>
		<path d="M1065.237,625.71c3.224,0,3.224-5,0-5S1062.012,625.71,1065.237,625.71L1065.237,625.71z"/>
	</g>
</g>
<g>
	<g>
		<path d="M1067.224,505.653c3.224,0,3.224-5,0-5C1063.999,500.653,1063.999,505.653,1067.224,505.653L1067.224,505.653z"/>
	</g>
</g>
<g>
	<g>
		<path d="M1066.161,564.207c3.224,0,3.224-5,0-5S1062.936,564.207,1066.161,564.207L1066.161,564.207z"/>
	</g>
</g>
<text transform="matrix(0.0375 0.9993 -0.9993 0.0375 554.4869 385.4337)" stroke="#E60012" stroke-miterlimit="10" font-family="'AdobeSongStd-Light-GBpc-EUC-H'" font-size="20.0062">=</text>
<text transform="matrix(1 0 0 1 609.5529 269.6992)"><tspan x="0" y="0" font-family="'AdobeSongStd-Light-GBpc-EUC-H'" font-size="12">厚度不一，就是通道数不一 </tspan><tspan x="0" y="14.4" font-family="'AdobeSongStd-Light-GBpc-EUC-H'" font-size="12">使用torch.cat()进行拼接</tspan></text>
<text transform="matrix(1 0 0 1 491.6671 446.1216)" stroke="#E60012" stroke-miterlimit="10" font-family="'AdobeSongStd-Light-GBpc-EUC-H'" font-size="12">通道数增加（1，768,30,30）</text>
<line fill="none" stroke="#000000" stroke-miterlimit="10" x1="553.694" y1="518.465" x2="675.442" y2="518.465"/>
<line fill="none" stroke="#000000" stroke-miterlimit="10" x1="467.564" y1="586.142" x2="589.312" y2="586.142"/>
<line fill="none" stroke="#000000" stroke-miterlimit="10" x1="468.211" y1="603.831" x2="589.959" y2="603.831"/>
<line fill="none" stroke="#000000" stroke-miterlimit="10" x1="553.694" y1="518.465" x2="470.154" y2="585.373"/>
<line fill="none" stroke="#000000" stroke-miterlimit="10" x1="673.499" y1="519.826" x2="589.959" y2="586.735"/>
<line fill="none" stroke="#000000" stroke-miterlimit="10" x1="674.198" y1="535.738" x2="590.659" y2="602.647"/>
<line fill="none" stroke="#000000" stroke-miterlimit="10" x1="469.953" y1="586.142" x2="469.953" y2="603.831"/>
<line fill="none" stroke="#000000" stroke-miterlimit="10" x1="589.759" y1="585.373" x2="589.759" y2="603.062"/>
<line fill="none" stroke="#000000" stroke-miterlimit="10" x1="674.594" y1="520.003" x2="674.594" y2="537.692"/>
<text transform="matrix(1 0 0 1 491.6671 555.8777)" stroke="#000000" stroke-miterlimit="10" font-family="'AdobeSongStd-Light-GBpc-EUC-H'" font-size="12">            （1，255,30,30）</text>
<text transform="matrix(1 0 0 1 229.8785 407.9102)" font-family="'AdobeSongStd-Light-GBpc-EUC-H'" font-size="12">size插值（1，256,15,15）</text>
<text transform="matrix(1 0 0 1 534.7566 342.0565)" font-family="'AdobeSongStd-Light-GBpc-EUC-H'" font-size="12">（1，256,30,30）</text>
<text transform="matrix(1 0 0 1 537.1956 197.3411)" font-family="'AdobeSongStd-Light-GBpc-EUC-H'" font-size="12">（1，512,30,30）</text>
<text transform="matrix(1 0 0 1 305.4883 194.0891)" font-family="'AdobeSongStd-Light-GBpc-EUC-H'" font-size="12">（1，512,30,30）</text>
<line fill="none" stroke="#000000" stroke-miterlimit="10" x1="319.285" y1="669.406" x2="441.033" y2="669.406"/>
<line fill="none" stroke="#000000" stroke-miterlimit="10" x1="233.154" y1="720.97" x2="354.902" y2="720.97"/>
<line fill="none" stroke="#000000" stroke-miterlimit="10" x1="233.802" y1="734.447" x2="355.55" y2="734.447"/>
<line fill="none" stroke="#000000" stroke-miterlimit="10" x1="319.285" y1="669.406" x2="235.745" y2="720.384"/>
<line fill="none" stroke="#000000" stroke-miterlimit="10" x1="439.09" y1="670.444" x2="355.55" y2="721.421"/>
<line fill="none" stroke="#000000" stroke-miterlimit="10" x1="439.789" y1="682.567" x2="356.249" y2="733.545"/>
<line fill="none" stroke="#000000" stroke-miterlimit="10" x1="235.544" y1="720.97" x2="235.544" y2="734.447"/>
<line fill="none" stroke="#000000" stroke-miterlimit="10" x1="355.349" y1="720.384" x2="355.349" y2="733.861"/>
<line fill="none" stroke="#000000" stroke-miterlimit="10" x1="440.184" y1="670.578" x2="440.184" y2="684.055"/>
<text transform="matrix(1 0 0 1 302.8216 695.4224)" font-family="'AdobeSongStd-Light-GBpc-EUC-H'" font-size="12">（1，128,30,30）</text>
<text transform="matrix(1 0 0 1 313.6183 61.9427)" font-family="'AdobeSongStd-Light-GBpc-EUC-H'" font-size="12">（1，256,60,60）</text>
<line fill="none" stroke="#000000" stroke-miterlimit="10" x1="1048.967" y1="20.48" x2="1201.813" y2="20.48"/>
<line fill="none" stroke="#000000" stroke-miterlimit="10" x1="940.837" y1="92.024" x2="1093.683" y2="92.024"/>
<line fill="none" stroke="#000000" stroke-miterlimit="10" x1="941.65" y1="110.724" x2="1094.496" y2="110.724"/>
<line fill="none" stroke="#000000" stroke-miterlimit="10" x1="1048.967" y1="20.48" x2="944.089" y2="91.211"/>
<line fill="none" stroke="#000000" stroke-miterlimit="10" x1="1199.374" y1="21.919" x2="1094.496" y2="92.65"/>
<line fill="none" stroke="#000000" stroke-miterlimit="10" x1="1200.252" y1="38.74" x2="1095.374" y2="109.472"/>
<line fill="none" stroke="#000000" stroke-miterlimit="10" x1="943.837" y1="92.024" x2="943.837" y2="110.724"/>
<line fill="none" stroke="#000000" stroke-miterlimit="10" x1="1094.244" y1="91.211" x2="1094.244" y2="109.911"/>
<line fill="none" stroke="#000000" stroke-miterlimit="10" x1="1200.748" y1="22.106" x2="1200.748" y2="40.805"/>
<text transform="matrix(1 0 0 1 1022.9517 61.9427)" font-family="'AdobeSongStd-Light-GBpc-EUC-H'" font-size="12">（1，256,60,60）</text>
<line fill="none" stroke="#000000" stroke-miterlimit="10" x1="1034.968" y1="656.48" x2="1187.813" y2="656.48"/>
<line fill="none" stroke="#000000" stroke-miterlimit="10" x1="926.837" y1="728.024" x2="1079.683" y2="728.024"/>
<line fill="none" stroke="#000000" stroke-miterlimit="10" x1="927.65" y1="746.724" x2="1080.496" y2="746.724"/>
<line fill="none" stroke="#000000" stroke-miterlimit="10" x1="1034.968" y1="656.48" x2="930.089" y2="727.211"/>
<line fill="none" stroke="#000000" stroke-miterlimit="10" x1="1185.374" y1="657.919" x2="1080.496" y2="728.65"/>
<line fill="none" stroke="#000000" stroke-miterlimit="10" x1="1186.252" y1="674.74" x2="1081.374" y2="745.472"/>
<line fill="none" stroke="#000000" stroke-miterlimit="10" x1="929.837" y1="728.024" x2="929.837" y2="746.724"/>
<line fill="none" stroke="#000000" stroke-miterlimit="10" x1="1080.244" y1="727.211" x2="1080.244" y2="745.911"/>
<line fill="none" stroke="#000000" stroke-miterlimit="10" x1="1186.748" y1="658.106" x2="1186.748" y2="676.805"/>
<text transform="matrix(1 0 0 1 1008.9517 697.9427)" font-family="'AdobeSongStd-Light-GBpc-EUC-H'" font-size="12">（1，128,60,60）</text>
<line fill="none" stroke="#000000" stroke-miterlimit="10" x1="1034.301" y1="781.146" x2="1187.146" y2="781.146"/>
<line fill="none" stroke="#000000" stroke-miterlimit="10" x1="926.171" y1="862.733" x2="1079.016" y2="862.733"/>
<line fill="none" stroke="#000000" stroke-miterlimit="10" x1="926.984" y1="884.057" x2="1079.829" y2="884.057"/>
<line fill="none" stroke="#000000" stroke-miterlimit="10" x1="1034.301" y1="781.146" x2="929.423" y2="861.806"/>
<line fill="none" stroke="#000000" stroke-miterlimit="10" x1="1184.707" y1="782.787" x2="1079.829" y2="863.447"/>
<line fill="none" stroke="#000000" stroke-miterlimit="10" x1="1185.585" y1="801.969" x2="1080.707" y2="882.629"/>
<line fill="none" stroke="#000000" stroke-miterlimit="10" x1="929.171" y1="862.733" x2="929.171" y2="884.057"/>
<line fill="none" stroke="#000000" stroke-miterlimit="10" x1="1079.577" y1="861.806" x2="1079.577" y2="883.13"/>
<line fill="none" stroke="#000000" stroke-miterlimit="10" x1="1186.081" y1="783.001" x2="1186.081" y2="804.324"/>
<text transform="matrix(0.8769 0 0 1 1008.2852 828.4293)" font-family="'AdobeSongStd-Light-GBpc-EUC-H'" font-size="13.6843">（1，384,60,60）</text>
<line fill="none" stroke="#000000" stroke-miterlimit="10" x1="1034.968" y1="918.48" x2="1187.813" y2="918.48"/>
<line fill="none" stroke="#000000" stroke-miterlimit="10" x1="926.837" y1="1000.066" x2="1079.683" y2="1000.066"/>
<line fill="none" stroke="#000000" stroke-miterlimit="10" x1="927.65" y1="1021.39" x2="1080.496" y2="1021.39"/>
<line fill="none" stroke="#000000" stroke-miterlimit="10" x1="1034.968" y1="918.48" x2="930.089" y2="999.139"/>
<line fill="none" stroke="#000000" stroke-miterlimit="10" x1="1185.374" y1="920.121" x2="1080.496" y2="1000.78"/>
<line fill="none" stroke="#000000" stroke-miterlimit="10" x1="1186.252" y1="939.303" x2="1081.374" y2="1019.962"/>
<line fill="none" stroke="#000000" stroke-miterlimit="10" x1="929.837" y1="1000.066" x2="929.837" y2="1021.39"/>
<line fill="none" stroke="#000000" stroke-miterlimit="10" x1="1080.244" y1="999.139" x2="1080.244" y2="1020.463"/>
<line fill="none" stroke="#000000" stroke-miterlimit="10" x1="1186.748" y1="920.334" x2="1186.748" y2="941.658"/>
<text transform="matrix(0.8769 0 0 1 1008.9518 965.7627)" font-family="'AdobeSongStd-Light-GBpc-EUC-H'" font-size="13.6843">（1，255,60,60）</text>
<text transform="matrix(0.3552 0 0 1 754.9238 313.476)" font-family="'AdobeSongStd-Light-GBpc-EUC-H'" font-size="209.1582">}</text>
<text transform="matrix(1 0 0 1 788.8051 254.6099)"><tspan x="0" y="0" font-family="'AdobeSongStd-Light-GBpc-EUC-H'" font-size="12">两个不相邻的层相加 </tspan><tspan x="0" y="14.4" font-family="'AdobeSongStd-Light-GBpc-EUC-H'" font-size="12">   是一个route过程</tspan></text>
<text transform="matrix(1 0 0 1 774.1711 296.0733)" fill="#E60012" font-family="'AdobeSongStd-Light-GBpc-EUC-H'" font-size="12">上层route到当前层cat拼接</text>
<text transform="matrix(0.1415 0 0 1 1215.5898 570.6107)" font-family="'AdobeSongStd-Light-GBpc-EUC-H'" font-size="716.5057">}</text>
<text transform="matrix(0.3984 0 0 1 1261.8291 368.9574)"><tspan x="0" y="0" font-family="'AdobeSongStd-Light-GBpc-EUC-H'" font-size="41.108">两个不相邻的层相加 </tspan><tspan x="0" y="49.329" font-family="'AdobeSongStd-Light-GBpc-EUC-H'" font-size="41.108">   是一个route过程</tspan></text>
<text transform="matrix(0.3984 0 0 1 1241.8574 510.9955)" fill="#E60012" font-family="'AdobeSongStd-Light-GBpc-EUC-H'" font-size="41.108">上层route到当前层cat拼接</text>
<text transform="matrix(1 0 0 1 83.0403 363.8534)" font-family="'AdobeSongStd-Light-GBpc-EUC-H'" font-size="14.0772">grid_cell是15的yolo层</text>
<text transform="matrix(1 0 0 1 85.4793 558.1624)" font-family="'AdobeSongStd-Light-GBpc-EUC-H'" font-size="14.0772">grid_cell是30的yolo层</text>
<g>
	<g>
		<path d="M542.236,508.972c3.224,0,3.224-5,0-5C539.011,503.972,539.011,508.972,542.236,508.972L542.236,508.972z"/>
	</g>
</g>
<g>
	<g>
		<path d="M568.252,509.785c3.224,0,3.224-5,0-5C565.028,504.785,565.028,509.785,568.252,509.785L568.252,509.785z"/>
	</g>
</g>
<g>
	<g>
		<path d="M597.52,510.598c3.224,0,3.224-5,0-5S594.296,510.598,597.52,510.598L597.52,510.598z"/>
	</g>
</g>
<g>
	<g>
		<path d="M1016.984,901.687c3.224,0,3.224-5,0-5C1013.759,896.687,1013.759,901.687,1016.984,901.687L1016.984,901.687z"/>
	</g>
</g>
<g>
	<g>
		<path d="M1043,902.5c3.224,0,3.224-5,0-5S1039.776,902.5,1043,902.5L1043,902.5z"/>
	</g>
</g>
<g>
	<g>
		<path d="M1072.268,903.313c3.224,0,3.224-5,0-5S1069.044,903.313,1072.268,903.313L1072.268,903.313z"/>
	</g>
</g>
<text transform="matrix(1 0 0 1 91 716.6667)" font-family="'AdobeSongStd-Light-GBpc-EUC-H'" font-size="12">route到size30的层</text>
<text transform="matrix(1 0 0 1 104.3333 984.6667)" font-family="'AdobeSongStd-Light-GBpc-EUC-H'" font-size="12">route到size60的层</text>
<g>
	<g>
		<line fill="none" stroke="#000000" stroke-miterlimit="10" x1="425.667" y1="201.333" x2="428.167" y2="201.333"/>
		
			<line fill="none" stroke="#000000" stroke-miterlimit="10" stroke-dasharray="5,5" x1="433.167" y1="201.333" x2="480.667" y2="201.333"/>
		<line fill="none" stroke="#000000" stroke-miterlimit="10" x1="483.167" y1="201.333" x2="485.667" y2="201.333"/>
	</g>
</g>
<g>
	<g>
		<line fill="none" stroke="#000000" stroke-miterlimit="10" x1="482.333" y1="72.667" x2="484.833" y2="72.667"/>
		
			<line fill="none" stroke="#000000" stroke-miterlimit="10" stroke-dasharray="5.0075,5.0075" x1="489.841" y1="72.667" x2="927.996" y2="72.667"/>
		<line fill="none" stroke="#000000" stroke-miterlimit="10" x1="930.5" y1="72.667" x2="933" y2="72.667"/>
	</g>
</g>
<rect x="216.333" y="304" fill="none" stroke="#E60012" stroke-miterlimit="10" stroke-dasharray="5" width="140.667" height="124.667"/>
<rect x="72.333" y="345.333" fill="none" stroke="#E60012" stroke-miterlimit="10" stroke-dasharray="5" width="141.333" height="27.333"/>
<rect x="67" y="538" fill="none" stroke="#E60012" stroke-miterlimit="10" stroke-dasharray="5" width="162" height="29.333"/>
<rect x="93.667" y="964.667" fill="none" stroke="#E60012" stroke-miterlimit="10" stroke-dasharray="5" width="119.333" height="28.667"/>
<rect x="460.333" y="509.333" fill="none" stroke="#E60012" stroke-miterlimit="10" stroke-dasharray="5" width="227.333" height="104.667"/>
<rect x="910.333" y="905.333" fill="none" stroke="#E60012" stroke-miterlimit="10" stroke-dasharray="5" width="284.667" height="124"/>
<text transform="matrix(1 0 0 1 202.3332 445.3333)"><tspan x="0" y="0" fill="#E60012" font-family="'AdobeSongStd-Light-GBpc-EUC-H'" font-size="12">这里size有问题，应该是1,255,15,15 </tspan><tspan x="0" y="14.4" fill="#E60012" font-family="'AdobeSongStd-Light-GBpc-EUC-H'" font-size="12">         这里是一个变换后的值</tspan></text>
</svg>
